<?xml version="1.0" encoding="UTF-8" standalone="no" ?>
<!DOCTYPE svg PUBLIC "-//W3C//DTD SVG 1.1//EN" "http://www.w3.org/Graphics/SVG/1.1/DTD/svg11.dtd">
<svg xmlns="http://www.w3.org/2000/svg" xmlns:xlink="http://www.w3.org/1999/xlink" version="1.1" width="640" height="427" viewBox="0 0 640 427" xml:space="preserve">
<desc>Created with Fabric.js 3.6.6</desc>
<defs>
</defs>
<rect x="0" y="0" width="100%" height="100%" fill="rgba(255, 255, 255, 1)"></rect>
<g transform="matrix(1.45 0 0 1.45 323.39 216.11)"  >
<g style=""   >
		<g transform="matrix(0.13 0 0 -0.13 1.31 -31.66)"  >
<path style="stroke: none; stroke-width: 1; stroke-dasharray: none; stroke-linecap: butt; stroke-dashoffset: 0; stroke-linejoin: miter; stroke-miterlimit: 4; fill: rgb(0,0,0); fill-rule: nonzero; opacity: 1;"  transform=" translate(-924.84, -1362.46)" d="M 755 2104 c -272 -61 -495 -254 -580 -503 c -87 -257 -29 -535 152 -731 c 165 -178 357 -262 598 -262 c 239 0 430 82 592 256 c 188 201 245 472 157 737 c -76 230 -277 418 -524 489 c -101 29 -296 36 -395 14 z m 413 -53 c 52 -17 115 -43 140 -58 c 409 -233 503 -762 197 -1100 l -50 -55 l 0 138 c 0 193 -16 249 -93 327 c -89 91 -123 107 -244 116 c -57 5 -116 13 -131 20 c -16 6 -38 11 -50 11 c -16 0 -30 15 -54 58 l -31 57 l 24 40 c 31 51 31 100 0 157 l -24 46 l 24 36 c 14 20 33 36 44 36 c 25 0 35 17 20 35 c -13 15 -40 10 -40 -9 c 0 -6 -16 -28 -35 -48 l -34 -36 l -38 19 c -21 11 -58 19 -84 19 c -43 0 -49 3 -68 35 c -23 40 -48 45 -56 12 c -4 -14 -22 -30 -48 -43 c -54 -24 -63 -59 -18 -69 c 44 -10 58 -31 36 -55 c -10 -11 -23 -20 -30 -20 c -19 0 -47 -37 -43 -57 c 2 -9 13 -22 25 -28 c 21 -11 21 -12 -23 -86 c -86 -144 -93 -215 -34 -335 c 37 -73 42 -91 50 -193 c 10 -126 4 -155 -35 -165 c -14 -4 -29 -16 -33 -27 c -7 -19 -14 -14 -69 45 c -312 333 -249 842 135 1090 c 142 92 271 127 452 122 c 109 -3 137 -7 218 -35 z m -548 -151 c 0 -6 11 -22 24 -35 c 19 -19 31 -23 59 -18 c 56 9 106 -26 157 -110 l 23 -39 l -30 -30 c -43 -43 -95 -47 -167 -15 c -31 14 -56 22 -56 18 c 0 -9 66 -42 108 -55 c 35 -11 80 3 118 36 c 20 18 34 25 34 17 c -1 -19 -26 -64 -37 -65 c -4 0 -34 -8 -65 -18 c -66 -20 -101 -14 -176 30 c -26 16 -59 27 -73 25 c -27 -2 -55 21 -44 39 c 3 6 23 19 44 30 c 21 10 41 25 43 32 c 10 24 -12 59 -42 69 c -36 13 -31 24 17 44 c 19 8 37 24 40 35 c 6 21 23 28 23 10 z m 13 -309 c 71 -35 110 -37 184 -13 c 25 8 31 8 27 -3 c -3 -7 4 -32 16 -55 c 12 -23 17 -39 11 -35 c -6 3 -11 1 -11 -4 c 0 -6 6 -11 14 -11 c 7 0 16 -9 19 -20 c 4 -15 14 -20 40 -20 c 19 0 54 -9 78 -19 c 24 -11 76 -24 116 -30 c 92 -14 109 -21 197 -80 c 80 -55 95 -79 115 -186 c 14 -76 14 -157 0 -229 c -17 -81 -39 -91 -188 -91 c -101 1 -115 3 -128 20 c -21 30 3 95 36 95 c 6 0 18 11 27 25 c 19 29 13 63 -19 109 c -12 17 -27 40 -33 51 c -15 30 -92 64 -183 82 c -70 14 -85 14 -118 2 c -60 -23 -65 -42 -60 -220 c 3 -86 2 -161 -2 -167 c -10 -16 -228 -9 -244 7 c -15 15 16 41 48 41 c 21 0 22 6 28 108 c 4 85 2 114 -10 140 c -9 18 -18 31 -20 28 c -3 -2 0 -13 6 -24 c 6 -12 11 -70 11 -130 l 0 -110 l -34 -6 c -22 -4 -37 -14 -41 -26 c -9 -28 -65 -28 -65 -1 c 0 12 9 21 25 25 c 42 11 48 37 43 185 c -5 120 -9 144 -34 206 c -40 96 -40 194 -1 278 c 26 58 67 118 77 113 c 3 -1 35 -17 73 -35 z m 311 -466 c 49 -8 104 -19 121 -25 c 43 -14 107 -100 103 -137 c -3 -24 -9 -29 -50 -38 c -25 -5 -61 -20 -78 -33 c -25 -19 -31 -29 -28 -55 c 5 -51 30 -58 215 -55 c 186 3 187 2 45 -67 c -115 -57 -207 -77 -347 -77 c -144 0 -234 21 -351 81 c -114 58 -120 64 -54 56 c 30 -4 101 -9 158 -11 c 91 -2 103 -1 112 16 c 6 10 10 88 10 174 c 0 127 3 157 16 170 c 19 19 17 19 128 1 z m 166 -251 c -6 -14 -7 -36 -4 -50 c 5 -21 3 -24 -19 -24 c -40 0 -57 10 -57 35 c 0 26 43 65 71 65 c 16 0 17 -4 9 -26 z" stroke-linecap="round" />
</g>
		<g transform="matrix(0.13 0 0 -0.13 -26.76 -89.09)"  >
<path style="stroke: none; stroke-width: 1; stroke-dasharray: none; stroke-linecap: butt; stroke-dashoffset: 0; stroke-linejoin: miter; stroke-miterlimit: 4; fill: rgb(0,0,0); fill-rule: nonzero; opacity: 1;"  transform=" translate(-714.29, -1793.19)" d="M 703 1803 c -22 -8 -14 -23 13 -23 c 15 0 24 5 22 12 c -5 14 -18 18 -35 11 z" stroke-linecap="round" />
</g>
		<g transform="matrix(0.13 0 0 -0.13 -20.18 -47.9)"  >
<path style="stroke: none; stroke-width: 1; stroke-dasharray: none; stroke-linecap: butt; stroke-dashoffset: 0; stroke-linejoin: miter; stroke-miterlimit: 4; fill: rgb(0,0,0); fill-rule: nonzero; opacity: 1;"  transform=" translate(-763.63, -1484.22)" d="M 750 1486 c 0 -9 7 -16 16 -16 c 17 0 14 22 -4 28 c -7 2 -12 -3 -12 -12 z" stroke-linecap="round" />
</g>
		<g transform="matrix(0.13 0 0 -0.13 -27.73 -46.66)"  >
<path style="stroke: none; stroke-width: 1; stroke-dasharray: none; stroke-linecap: butt; stroke-dashoffset: 0; stroke-linejoin: miter; stroke-miterlimit: 4; fill: rgb(0,0,0); fill-rule: nonzero; opacity: 1;"  transform=" translate(-706.99, -1474.97)" d="M 697 1484 c -8 -8 1 -24 14 -24 c 5 0 9 7 9 15 c 0 15 -12 20 -23 9 z" stroke-linecap="round" />
</g>
		<g transform="matrix(0.13 0 0 -0.13 -12.53 -45.33)"  >
<path style="stroke: none; stroke-width: 1; stroke-dasharray: none; stroke-linecap: butt; stroke-dashoffset: 0; stroke-linejoin: miter; stroke-miterlimit: 4; fill: rgb(0,0,0); fill-rule: nonzero; opacity: 1;"  transform=" translate(-821, -1465)" d="M 810 1465 c 0 -9 5 -15 11 -13 c 6 2 11 8 11 13 c 0 5 -5 11 -11 13 c -6 2 -11 -4 -11 -13 z" stroke-linecap="round" />
</g>
		<g transform="matrix(0.13 0 0 -0.13 -34.67 -44)"  >
<path style="stroke: none; stroke-width: 1; stroke-dasharray: none; stroke-linecap: butt; stroke-dashoffset: 0; stroke-linejoin: miter; stroke-miterlimit: 4; fill: rgb(0,0,0); fill-rule: nonzero; opacity: 1;"  transform=" translate(-655, -1455)" d="M 640 1455 c 0 -8 7 -15 15 -15 c 8 0 15 7 15 15 c 0 8 -7 15 -15 15 c -8 0 -15 -7 -15 -15 z" stroke-linecap="round" />
</g>
		<g transform="matrix(0.13 0 0 -0.13 -42.67 -42.67)"  >
<path style="stroke: none; stroke-width: 1; stroke-dasharray: none; stroke-linecap: butt; stroke-dashoffset: 0; stroke-linejoin: miter; stroke-miterlimit: 4; fill: rgb(0,0,0); fill-rule: nonzero; opacity: 1;"  transform=" translate(-595, -1445)" d="M 580 1445 c 0 -8 7 -15 15 -15 c 8 0 15 7 15 15 c 0 8 -7 15 -15 15 c -8 0 -15 -7 -15 -15 z" stroke-linecap="round" />
</g>
		<g transform="matrix(0.13 0 0 -0.13 -50.43 -41.06)"  >
<path style="stroke: none; stroke-width: 1; stroke-dasharray: none; stroke-linecap: butt; stroke-dashoffset: 0; stroke-linejoin: miter; stroke-miterlimit: 4; fill: rgb(0,0,0); fill-rule: nonzero; opacity: 1;"  transform=" translate(-536.8, -1432.93)" d="M 531 1441 c -10 -6 -10 -10 -1 -16 c 13 -8 24 -1 19 14 c -3 6 -10 7 -18 2 z" stroke-linecap="round" />
</g>
		<g transform="matrix(0.13 0 0 -0.13 -57.31 -38.97)"  >
<path style="stroke: none; stroke-width: 1; stroke-dasharray: none; stroke-linecap: butt; stroke-dashoffset: 0; stroke-linejoin: miter; stroke-miterlimit: 4; fill: rgb(0,0,0); fill-rule: nonzero; opacity: 1;"  transform=" translate(-485.15, -1417.3)" d="M 477 1423 c -12 -12 -7 -22 8 -17 c 8 4 15 10 15 15 c 0 11 -14 12 -23 2 z" stroke-linecap="round" />
</g>
		<g transform="matrix(0.13 0 0 -0.13 59.71 16.14)"  >
<path style="stroke: none; stroke-width: 1; stroke-dasharray: none; stroke-linecap: butt; stroke-dashoffset: 0; stroke-linejoin: miter; stroke-miterlimit: 4; fill: rgb(0,0,0); fill-rule: nonzero; opacity: 1;"  transform=" translate(-1362.82, -1003.95)" d="M 1353 1122 c 5 -37 7 -118 4 -180 c -5 -132 7 -160 18 -38 c 8 102 -3 262 -20 276 c -9 7 -9 -6 -2 -58 z" stroke-linecap="round" />
</g>
		<g transform="matrix(0.13 0 0 -0.13 -5.04 81.12)"  >
<path style="stroke: none; stroke-width: 1; stroke-dasharray: none; stroke-linecap: butt; stroke-dashoffset: 0; stroke-linejoin: miter; stroke-miterlimit: 4; fill: rgb(0,0,0); fill-rule: nonzero; opacity: 1;"  transform=" translate(-877.21, -516.58)" d="M 250 696 c 0 -94 -4 -146 -10 -146 c -25 0 -91 42 -104 68 l -15 27 l -1 -47 c 0 -26 5 -69 11 -97 c 8 -40 7 -55 -5 -80 c -39 -74 -7 -130 108 -187 c 54 -26 83 -35 112 -32 c 37 3 39 5 39 38 c 0 37 14 100 21 100 c 3 0 21 -8 42 -19 c 65 -33 226 -79 318 -92 c 153 -20 319 3 502 70 l 82 29 l 10 -36 c 5 -21 8 -51 7 -67 c -2 -27 1 -30 33 -33 c 50 -5 99 12 167 58 c 77 51 90 77 67 141 c -15 42 -16 58 -6 126 c 7 43 12 89 12 103 c 0 24 -1 24 -20 -8 c -20 -33 -74 -72 -99 -72 c -11 0 -13 21 -8 119 l 5 119 l -61 -50 c -128 -103 -299 -163 -497 -174 c -239 -14 -476 70 -645 228 l -65 60 l 0 -146 z m 143 -4 c 71 -49 202 -109 292 -133 c 115 -32 333 -32 459 -1 c 104 26 231 84 299 135 c 26 21 48 37 50 37 c 1 0 -2 -69 -6 -152 c -9 -178 -1 -165 -142 -227 c -277 -122 -521 -140 -771 -57 c -102 35 -224 91 -276 128 l -28 19 l 0 176 l 0 175 l 38 -34 c 21 -19 59 -49 85 -66 z m -198 -146 c 49 -23 55 -30 55 -83 c 0 -34 11 -57 60 -130 c 33 -48 60 -93 60 -100 c 0 -38 -134 6 -203 67 c -42 36 -48 70 -21 121 c 12 25 13 40 5 80 c -13 59 -14 72 -3 67 c 4 -2 25 -12 47 -22 z m 1410 -50 c -6 -50 -3 -75 10 -111 c 18 -45 17 -47 -1 -71 c -32 -44 -128 -96 -184 -102 c -28 -2 -50 0 -50 5 c 0 5 20 38 45 74 c 67 96 76 116 82 175 c 3 30 11 54 17 54 c 6 0 27 9 46 19 c 19 11 36 20 38 20 c 2 1 0 -28 -3 -63 z m -1228 -152 c 3 -8 2 -24 -3 -35 c -9 -18 -12 -16 -44 28 c -48 66 -48 67 -1 43 c 23 -11 45 -28 48 -36 z m 1076 24 c -5 -7 -23 -30 -38 -51 c -27 -36 -29 -38 -37 -18 c -11 30 -2 45 35 64 c 39 19 52 21 40 5 z" stroke-linecap="round" />
</g>
		<g transform="matrix(0.13 0 0 -0.13 -57.24 86.29)"  >
<path style="stroke: none; stroke-width: 1; stroke-dasharray: none; stroke-linecap: butt; stroke-dashoffset: 0; stroke-linejoin: miter; stroke-miterlimit: 4; fill: rgb(0,0,0); fill-rule: nonzero; opacity: 1;"  transform=" translate(-485.68, -477.83)" d="M 376 588 c -3 -13 -8 -53 -11 -90 c -7 -67 -6 -68 22 -79 c 15 -6 58 -24 94 -40 c 36 -16 80 -29 97 -29 l 32 0 l 0 85 c 0 66 -3 85 -14 85 c -16 0 -146 53 -188 76 c -26 14 -28 14 -32 -8 z m 49 -26 c 6 -4 10 -35 10 -69 c 0 -58 -2 -63 -22 -63 c -30 0 -32 7 -26 78 c 6 59 14 72 38 54 z m 97 -103 c -2 -35 -5 -65 -8 -68 c -9 -10 -52 19 -57 38 c -4 18 -1 21 25 21 c 17 0 27 4 23 10 c -3 6 -17 10 -31 10 c -19 0 -24 5 -24 24 c 0 49 8 57 43 42 c 32 -13 32 -13 29 -77 z m 52 45 c 23 -9 20 -23 -4 -17 c -11 3 -20 9 -20 14 c 0 11 3 11 24 3 z m 16 -84 c 0 -47 -2 -50 -25 -50 c -23 0 -25 4 -25 43 c 0 48 5 57 32 57 c 15 0 18 -8 18 -50 z" stroke-linecap="round" />
</g>
		<g transform="matrix(0.13 0 0 -0.13 52.28 78.39)"  >
<path style="stroke: none; stroke-width: 1; stroke-dasharray: none; stroke-linecap: butt; stroke-dashoffset: 0; stroke-linejoin: miter; stroke-miterlimit: 4; fill: rgb(0,0,0); fill-rule: nonzero; opacity: 1;"  transform=" translate(-1307.12, -537.05)" d="M 1275 550 c 3 -5 15 -10 25 -10 c 13 0 17 -5 14 -15 c -5 -11 -2 -13 10 -9 c 9 3 16 15 16 25 c 0 15 -7 19 -36 19 c -21 0 -33 -4 -29 -10 z" stroke-linecap="round" />
</g>
		<g transform="matrix(0.13 0 0 -0.13 -30 85.87)"  >
<path style="stroke: none; stroke-width: 1; stroke-dasharray: none; stroke-linecap: butt; stroke-dashoffset: 0; stroke-linejoin: miter; stroke-miterlimit: 4; fill: rgb(0,0,0); fill-rule: nonzero; opacity: 1;"  transform=" translate(-690.04, -480.99)" d="M 682 498 c -7 -7 -12 -21 -12 -32 c 0 -18 1 -19 20 -1 c 20 18 27 45 12 45 c -4 0 -13 -5 -20 -12 z" stroke-linecap="round" />
</g>
		<g transform="matrix(0.13 0 0 -0.13 39.42 97.35)"  >
<path style="stroke: none; stroke-width: 1; stroke-dasharray: none; stroke-linecap: butt; stroke-dashoffset: 0; stroke-linejoin: miter; stroke-miterlimit: 4; fill: rgb(0,0,0); fill-rule: nonzero; opacity: 1;"  transform=" translate(-1210.65, -394.86)" d="M 1254 470 c -12 -5 -29 -19 -37 -31 c -15 -21 -17 -21 -42 -5 c -34 22 -62 13 -82 -29 c -19 -41 -13 -59 27 -80 c 41 -21 53 -9 17 17 c -30 22 -33 36 -13 63 c 13 18 15 18 39 2 c 35 -23 49 -21 77 8 c 13 14 31 25 41 25 c 21 0 31 -24 16 -39 c -8 -8 -8 -14 2 -23 c 10 -11 15 -9 27 6 c 37 50 -13 110 -72 86 z" stroke-linecap="round" />
</g>
		<g transform="matrix(0.13 0 0 -0.13 -5.35 100.47)"  >
<path style="stroke: none; stroke-width: 1; stroke-dasharray: none; stroke-linecap: butt; stroke-dashoffset: 0; stroke-linejoin: miter; stroke-miterlimit: 4; fill: rgb(0,0,0); fill-rule: nonzero; opacity: 1;"  transform=" translate(-874.88, -371.47)" d="M 895 449 c -38 -5 -77 -6 -87 -3 c -9 3 -19 0 -23 -6 c -3 -6 4 -11 17 -11 c 13 -1 39 -2 58 -3 c 109 -5 106 -4 87 -23 c -14 -14 -32 -17 -93 -15 c -46 1 -82 -2 -90 -9 c -18 -15 -18 -47 0 -65 c 18 -18 193 -33 182 -16 c -4 7 -24 12 -44 12 c -20 0 -54 3 -75 7 c -31 5 -38 9 -35 27 c 3 19 8 21 54 18 c 51 -4 99 11 139 43 c 19 15 19 15 0 33 c -17 16 -30 17 -90 11 z" stroke-linecap="round" />
</g>
</g>
</g>
</svg>